<svg id="SvgjsSvg1076" width="1236.296875" height="120.0625" xmlns="http://www.w3.org/2000/svg" version="1.1" xmlns:xlink="http://www.w3.org/1999/xlink" xmlns:svgjs="http://svgjs.com/svgjs"><defs id="SvgjsDefs1077"><marker id="SvgjsMarker1118" markerWidth="16" markerHeight="12" refX="16" refY="6" viewBox="0 0 16 12" orient="auto" markerUnits="userSpaceOnUse" stroke-dasharray="0,0"><path id="SvgjsPath1119" d="M0,2 L14,6 L0,11 L0,2" fill="#323232" stroke="#323232" stroke-width="2"></path></marker><marker id="SvgjsMarker1122" markerWidth="16" markerHeight="12" refX="16" refY="6" viewBox="0 0 16 12" orient="auto" markerUnits="userSpaceOnUse" stroke-dasharray="0,0"><path id="SvgjsPath1123" d="M0,2 L14,6 L0,11 L0,2" fill="#323232" stroke="#323232" stroke-width="2"></path></marker><marker id="SvgjsMarker1130" markerWidth="16" markerHeight="12" refX="16" refY="6" viewBox="0 0 16 12" orient="auto" markerUnits="userSpaceOnUse" stroke-dasharray="0,0"><path id="SvgjsPath1131" d="M0,2 L14,6 L0,11 L0,2" fill="#323232" stroke="#323232" stroke-width="2"></path></marker><marker id="SvgjsMarker1138" markerWidth="16" markerHeight="12" refX="16" refY="6" viewBox="0 0 16 12" orient="auto" markerUnits="userSpaceOnUse" stroke-dasharray="0,0"><path id="SvgjsPath1139" d="M0,2 L14,6 L0,11 L0,2" fill="#323232" stroke="#323232" stroke-width="2"></path></marker></defs><g id="SvgjsG1078" transform="translate(25,25)"><path id="SvgjsPath1079" d="M 0 4Q 0 0 4 0L 144 0Q 148 0 148 4L 148 66Q 148 70 144 70L 4 70Q 0 70 0 66Z" stroke="rgba(50,50,50,1)" stroke-width="2" fill-opacity="1" fill="#ffffff"></path><g id="SvgjsG1080"><text id="SvgjsText1081" font-family="微软雅黑" text-anchor="middle" font-size="13px" width="128px" fill="#323232" font-weight="400" align="middle" lineHeight="125%" anchor="middle" family="微软雅黑" size="13px" weight="400" font-style="" opacity="1" y="17.375" transform="rotate(0)"><tspan id="SvgjsTspan1082" dy="16" x="74"><tspan id="SvgjsTspan1083" style="text-decoration:;">执行 yarn commit </tspan></tspan><tspan id="SvgjsTspan1084" dy="16" x="74"><tspan id="SvgjsTspan1085" style="text-decoration:;">(git add . &amp;&amp; git-cz)</tspan></tspan></text></g></g><g id="SvgjsG1086" transform="translate(256,25.074074074074076)"><path id="SvgjsPath1087" d="M 0 4Q 0 0 4 0L 152 0Q 156 0 156 4L 156 66Q 156 70 152 70L 4 70Q 0 70 0 66Z" stroke="rgba(50,50,50,1)" stroke-width="2" fill-opacity="1" fill="#ffffff"></path><g id="SvgjsG1088"><text id="SvgjsText1089" font-family="微软雅黑" text-anchor="middle" font-size="13px" width="136px" fill="#323232" font-weight="400" align="middle" lineHeight="125%" anchor="middle" family="微软雅黑" size="13px" weight="400" font-style="" opacity="1" y="17.375" transform="rotate(0)"><tspan id="SvgjsTspan1090" dy="16" x="78"><tspan id="SvgjsTspan1091" style="text-decoration:;">启动 commitizen 生成 </tspan></tspan><tspan id="SvgjsTspan1092" dy="16" x="78"><tspan id="SvgjsTspan1093" style="text-decoration:;">commit-message</tspan></tspan></text></g></g><g id="SvgjsG1094" transform="translate(526,25)"><path id="SvgjsPath1095" d="M 0 4Q 0 0 4 0L 186 0Q 190 0 190 4L 190 66Q 190 70 186 70L 4 70Q 0 70 0 66Z" stroke="rgba(50,50,50,1)" stroke-width="2" fill-opacity="1" fill="#ffffff"></path><g id="SvgjsG1096"><text id="SvgjsText1097" font-family="微软雅黑" text-anchor="middle" font-size="13px" width="170px" fill="#323232" font-weight="400" align="middle" lineHeight="125%" anchor="middle" family="微软雅黑" size="13px" weight="400" font-style="" opacity="1" y="17.375" transform="rotate(0)"><tspan id="SvgjsTspan1098" dy="16" x="95"><tspan id="SvgjsTspan1099" style="text-decoration:;">执行 lint-staged 对暂存区的</tspan></tspan><tspan id="SvgjsTspan1100" dy="16" x="95"><tspan id="SvgjsTspan1101" style="text-decoration:;">文件进行校验、修复和格式化</tspan></tspan></text></g></g><g id="SvgjsG1102" transform="translate(836,25.074074074074076)"><path id="SvgjsPath1103" d="M 0 4Q 0 0 4 0L 184 0Q 188 0 188 4L 188 66Q 188 70 184 70L 4 70Q 0 70 0 66Z" stroke="rgba(50,50,50,1)" stroke-width="2" fill-opacity="1" fill="#ffffff"></path><g id="SvgjsG1104"><text id="SvgjsText1105" font-family="微软雅黑" text-anchor="middle" font-size="13px" width="168px" fill="#323232" font-weight="400" align="middle" lineHeight="125%" anchor="middle" family="微软雅黑" size="13px" weight="400" font-style="" opacity="1" y="17.375" transform="rotate(0)"><tspan id="SvgjsTspan1106" dy="16" x="94"><tspan id="SvgjsTspan1107" style="text-decoration:;">执行 commitlint 对 </tspan></tspan><tspan id="SvgjsTspan1108" dy="16" x="94"><tspan id="SvgjsTspan1109" style="text-decoration:;">commit-message 进行校验</tspan></tspan></text></g></g><g id="SvgjsG1110" transform="translate(1111.2990397805208,25.074074074074076)"><path id="SvgjsPath1111" d="M 0 4Q 0 0 4 0L 96 0Q 100 0 100 4L 100 66Q 100 70 96 70L 4 70Q 0 70 0 66Z" stroke="rgba(50,50,50,1)" stroke-width="2" fill-opacity="1" fill="#ffffff"></path><g id="SvgjsG1112"><text id="SvgjsText1113" font-family="微软雅黑" text-anchor="middle" font-size="13px" width="80px" fill="#323232" font-weight="400" align="middle" lineHeight="125%" anchor="middle" family="微软雅黑" size="13px" weight="400" font-style="" opacity="1" y="25.375" transform="rotate(0)"><tspan id="SvgjsTspan1114" dy="16" x="50"><tspan id="SvgjsTspan1115" style="text-decoration:;">生成 commit</tspan></tspan></text></g></g><g id="SvgjsG1116"><path id="SvgjsPath1117" d="M173 60L214.5 60L214.5 60.074074074074076L256 60.074074074074076" stroke="#323232" stroke-width="2" fill="none" marker-end="url(#SvgjsMarker1118)"></path></g><g id="SvgjsG1120"><path id="SvgjsPath1121" d="M412 60.074074074074076L469 60.074074074074076L469 60L526 60" stroke="#323232" stroke-width="2" fill="none" marker-end="url(#SvgjsMarker1122)"></path><rect id="SvgjsRect1124" width="74" height="16" x="432" y="52.03703703703704" fill="#ffffff"></rect><text id="SvgjsText1125" font-family="微软雅黑" text-anchor="middle" font-size="13px" width="74px" fill="#323232" font-weight="400" align="top" lineHeight="16px" anchor="middle" family="微软雅黑" size="13px" weight="400" font-style="" opacity="1" y="50.41203703703704" transform="rotate(0)"><tspan id="SvgjsTspan1126" dy="16" x="469"><tspan id="SvgjsTspan1127" style="text-decoration:;">pre-commit</tspan></tspan></text></g><g id="SvgjsG1128"><path id="SvgjsPath1129" d="M716 60L776 60L776 60.074074074074076L836 60.074074074074076" stroke="#323232" stroke-width="2" fill="none" marker-end="url(#SvgjsMarker1130)"></path><rect id="SvgjsRect1132" width="80" height="16" x="736" y="52.03703703703704" fill="#ffffff"></rect><text id="SvgjsText1133" font-family="微软雅黑" text-anchor="middle" font-size="13px" width="80px" fill="#323232" font-weight="400" align="top" lineHeight="16px" anchor="middle" family="微软雅黑" size="13px" weight="400" font-style="" opacity="1" y="50.41203703703704" transform="rotate(0)"><tspan id="SvgjsTspan1134" dy="16" x="776"><tspan id="SvgjsTspan1135" style="text-decoration:;">commit-msg</tspan></tspan></text></g><g id="SvgjsG1136"><path id="SvgjsPath1137" d="M1024 60.074074074074076L1067.6495198902603 60.074074074074076L1067.6495198902603 60.074074074074076L1111.2990397805208 60.074074074074076" stroke="#323232" stroke-width="2" fill="none" marker-end="url(#SvgjsMarker1138)"></path></g></svg>