<svg height="270.20444" width="293.83344" xmlns="http://www.w3.org/2000/svg"><g transform="translate(-155.72057 -154.13991)"><g transform="matrix(.03375571 0 0 .03375571 115.30997 36.091184)"><g><path d="m5550 11500h-4350v-8000h8700v8000z" fill="#cfe7f5"/><g fill="none"><path d="m5550 11500h-4350v-8000h8700v8000z" stroke="#808080"/><path d="m1200 3500h8701v8001h-8701z"/></g></g><g><path d="m5550 11500h-4350v-1800h8700v1800z" fill="#0ff"/><g fill="none"><path d="m5550 11500h-4350v-1800h8700v1800z" stroke="#808080"/><path d="m1200 9700h8701v1801h-8701z"/></g></g><g><path d="m2250 9700h-1050v-6200h2100v6200z" fill="#09f"/><g fill="none"><path d="m2250 9700h-1050v-6200h2100v6200z" stroke="#808080"/><path d="m1200 3500h2101v6201h-2101z"/></g></g><g><path d="m5549 11499h-4350v-8000h8700v8000z" fill="#cfe7f5"/><g fill="none"><path d="m5549 11499h-4350v-8000h8700v8000z" stroke="#808080"/><path d="m1199 3499h8701v8001h-8701z"/></g></g><g stroke="#000" stroke-width="29.624618"><path d="m5549 11499h-4350v-1100h8700v1100z" fill="#0ff"/><g fill="none"><path d="m5549 11499h-4350v-1100h8700v1100z"/><path d="m1199 10399h8701v1101h-8701z"/></g></g><g stroke="#000" stroke-width="29.624618"><path d="m1999 10399h-800v-6900h1600v6900z" fill="#09f"/><g fill="none"><path d="m1999 10399h-800v-6900h1600v6900z"/><path d="m1199 3499h1601v6901h-1601z"/></g></g><g><path d="m7500 7000h-300v-600h600v600z" fill="#7e0021"/><g fill="none"><path d="m7500 7000h-300v-600h600v600z" stroke="#808080"/><path d="m7200 6400h601v601h-601z"/></g></g><g><path d="m6499 6299h-300v-600h600v600z" fill="#7e0021"/><g fill="none"><path d="m6499 6299h-300v-600h600v600z" stroke="#808080"/><path d="m6199 5699h601v601h-601z"/></g></g><g><path d="m7099 4799h-300v-600h600v600z" fill="#7e0021"/><g fill="none"><path d="m7099 4799h-300v-600h600v600z" stroke="#808080"/><path d="m6799 4199h601v601h-601z"/></g></g><g><path d="m5099 5199h-300v-600h600v600z" fill="#7e0021"/><g fill="none"><path d="m5099 5199h-300v-600h600v600z" stroke="#808080"/><path d="m4799 4599h601v601h-601z"/></g></g><g><path d="m8699 6499h-300v-600h600v600z" fill="#7e0021"/><g fill="none"><path d="m8699 6499h-300v-600h600v600z" stroke="#808080"/><path d="m8399 5899h601v601h-601z"/></g></g><g><path d="m7899 8299h-300v-600h600v600z" fill="#7e0021"/><g fill="none"><path d="m7899 8299h-300v-600h600v600z" stroke="#808080"/><path d="m7599 7699h601v601h-601z"/></g></g><g><path d="m5399 8099h-300v-600h600v600z" fill="#7e0021"/><g fill="none"><path d="m5399 8099h-300v-600h600v600z" stroke="#808080"/><path d="m5099 7499h601v601h-601z"/></g></g><g><path d="m1999 10299h-700v-800h1400v800z" fill="#ff950e"/><g fill="none"><path d="m1999 10299h-700v-800h1400v800z" stroke="#808080"/><path d="m1299 9499h1401v801h-1401z"/></g></g><g><path d="m1999 9399h-700v-800h1400v800z" fill="#ff950e"/><g fill="none"><path d="m1999 9399h-700v-800h1400v800z" stroke="#808080"/><path d="m1299 8599h1401v801h-1401z"/></g></g><g><path d="m1999 8499h-700v-800h1400v800z" fill="#ff950e"/><g fill="none"><path d="m1999 8499h-700v-800h1400v800z" stroke="#808080"/><path d="m1299 7699h1401v801h-1401z"/></g></g><g><path d="m1999 11399h-700v-900h1400v900z" fill="#cc0"/><g fill="none"><path d="m1999 11399h-700v-900h1400v900z" stroke="#808080"/><path d="m1299 10499h1401v901h-1401z"/></g></g><g><path d="m3599 11399h-700v-900h1400v900z" fill="#cc0"/><g fill="none"><path d="m3599 11399h-700v-900h1400v900z" stroke="#808080"/><path d="m2899 10499h1401v901h-1401z"/></g></g><g><path d="m5199 11399h-700v-900h1400v900z" fill="#cc0"/><g fill="none"><path d="m5199 11399h-700v-900h1400v900z" stroke="#808080"/><path d="m4499 10499h1401v901h-1401z"/></g></g></g><g transform="matrix(.03375571 0 0 .03375571 115.24291 6.456852)"><path d="m1999 8499h-700v-800h1400v800z" fill="#ff950e"/><g fill="none"><path d="m1999 8499h-700v-800h1400v800z" stroke="#808080"/><path d="m1299 7699h1401v801h-1401z"/></g></g><text font-family="Arial" font-size="20" letter-spacing="0" word-spacing="0" x="157.72057" y="172.84435"><tspan x="157.72057" y="172.84435">Stack</tspan></text><text font-family="Arial" font-size="20" letter-spacing="0" word-spacing="0" x="395.79089" y="173.00255"><tspan x="395.79089" y="173.00255">Heap</tspan></text><text font-family="Arial" font-size="20" letter-spacing="0" word-spacing="0" x="385.39929" y="410.01526"><tspan x="385.39929" y="410.01526">Queue</tspan></text></g></svg>