<svg id="SvgjsSvg1006" width="1057.5" height="536" xmlns="http://www.w3.org/2000/svg" version="1.1" xmlns:xlink="http://www.w3.org/1999/xlink" xmlns:svgjs="http://svgjs.com/svgjs"><defs id="SvgjsDefs1007"><marker id="SvgjsMarker1040" markerWidth="16" markerHeight="12" refX="16" refY="6" viewBox="0 0 16 12" orient="auto" markerUnits="userSpaceOnUse" stroke-dasharray="0,0"><path id="SvgjsPath1041" d="M0,2 L14,6 L0,11 L0,2" fill="#323232" stroke="#323232" stroke-width="2"></path></marker><marker id="SvgjsMarker1048" markerWidth="16" markerHeight="12" refX="16" refY="6" viewBox="0 0 16 12" orient="auto" markerUnits="userSpaceOnUse" stroke-dasharray="0,0"><path id="SvgjsPath1049" d="M0,2 L14,6 L0,11 L0,2" fill="#323232" stroke="#323232" stroke-width="2"></path></marker><marker id="SvgjsMarker1056" markerWidth="16" markerHeight="12" refX="16" refY="6" viewBox="0 0 16 12" orient="auto" markerUnits="userSpaceOnUse" stroke-dasharray="0,0"><path id="SvgjsPath1057" d="M0,2 L14,6 L0,11 L0,2" fill="#323232" stroke="#323232" stroke-width="2"></path></marker><marker id="SvgjsMarker1064" markerWidth="16" markerHeight="12" refX="16" refY="6" viewBox="0 0 16 12" orient="auto" markerUnits="userSpaceOnUse" stroke-dasharray="0,0"><path id="SvgjsPath1065" d="M0,2 L14,6 L0,11 L0,2" fill="#323232" stroke="#323232" stroke-width="2"></path></marker><marker id="SvgjsMarker1126" markerWidth="16" markerHeight="12" refX="16" refY="6" viewBox="0 0 16 12" orient="auto" markerUnits="userSpaceOnUse" stroke-dasharray="0,0"><path id="SvgjsPath1127" d="M0,2 L14,6 L0,11 L0,2" fill="#323232" stroke="#323232" stroke-width="2"></path></marker></defs><g id="SvgjsG1008" transform="translate(470,25)"><path id="SvgjsPath1009" d="M 0 4Q 0 0 4 0L 96 0Q 100 0 100 4L 100 66Q 100 70 96 70L 4 70Q 0 70 0 66Z" stroke="rgba(50,50,50,1)" stroke-width="2" fill-opacity="1" fill="#ffffff"></path><g id="SvgjsG1010"><text id="SvgjsText1011" font-family="微软雅黑" text-anchor="middle" font-size="13px" width="80px" fill="#323232" font-weight="400" align="middle" lineHeight="125%" anchor="middle" family="微软雅黑" size="13px" weight="400" font-style="" opacity="1" y="25.375" transform="rotate(0)"><tspan id="SvgjsTspan1012" dy="16" x="50"><tspan id="SvgjsTspan1013" style="text-decoration:;">RlListPipes</tspan></tspan></text></g></g><g id="SvgjsG1014" transform="translate(832.5,340)"><path id="SvgjsPath1015" d="M 0 4Q 0 0 4 0L 113 0Q 117 0 117 4L 117 66Q 117 70 113 70L 4 70Q 0 70 0 66Z" stroke="rgba(50,50,50,1)" stroke-width="2" fill-opacity="1" fill="#ffffff"></path><g id="SvgjsG1016"><text id="SvgjsText1017" font-family="微软雅黑" text-anchor="middle" font-size="13px" width="97px" fill="#323232" font-weight="400" align="middle" lineHeight="125%" anchor="middle" family="微软雅黑" size="13px" weight="400" font-style="" opacity="1" y="25.375" transform="rotate(0)"><tspan id="SvgjsTspan1018" dy="16" x="58.5"><tspan id="SvgjsTspan1019" style="text-decoration:;">RlListPipeFilter</tspan></tspan></text></g></g><g id="SvgjsG1020" transform="translate(25,340)"><path id="SvgjsPath1021" d="M 0 4Q 0 0 4 0L 130 0Q 134 0 134 4L 134 66Q 134 70 130 70L 4 70Q 0 70 0 66Z" stroke="rgba(50,50,50,1)" stroke-width="2" fill-opacity="1" fill="#ffffff"></path><g id="SvgjsG1022"><text id="SvgjsText1023" font-family="微软雅黑" text-anchor="middle" font-size="13px" width="114px" fill="#323232" font-weight="400" align="middle" lineHeight="125%" anchor="middle" family="微软雅黑" size="13px" weight="400" font-style="" opacity="1" y="25.375" transform="rotate(0)"><tspan id="SvgjsTspan1024" dy="16" x="67"><tspan id="SvgjsTspan1025" style="text-decoration:;">RlListPipeFormat</tspan></tspan></text></g></g><g id="SvgjsG1026" transform="translate(277,340)"><path id="SvgjsPath1027" d="M 0 4Q 0 0 4 0L 149 0Q 153 0 153 4L 153 66Q 153 70 149 70L 4 70Q 0 70 0 66Z" stroke="rgba(50,50,50,1)" stroke-width="2" fill-opacity="1" fill="#ffffff"></path><g id="SvgjsG1028"><text id="SvgjsText1029" font-family="微软雅黑" text-anchor="middle" font-size="13px" width="133px" fill="#323232" font-weight="400" align="middle" lineHeight="125%" anchor="middle" family="微软雅黑" size="13px" weight="400" font-style="" opacity="1" y="25.375" transform="rotate(0)"><tspan id="SvgjsTspan1030" dy="16" x="76.5"><tspan id="SvgjsTspan1031" style="text-decoration:;">RlListPipePagination</tspan></tspan></text></g></g><g id="SvgjsG1032" transform="translate(611,340)"><path id="SvgjsPath1033" d="M 0 4Q 0 0 4 0L 156 0Q 160 0 160 4L 160 66Q 160 70 156 70L 4 70Q 0 70 0 66Z" stroke="rgba(50,50,50,1)" stroke-width="2" fill-opacity="1" fill="#ffffff"></path><g id="SvgjsG1034"><text id="SvgjsText1035" font-family="微软雅黑" text-anchor="middle" font-size="13px" width="140px" fill="#323232" font-weight="400" align="middle" lineHeight="125%" anchor="middle" family="微软雅黑" size="13px" weight="400" font-style="" opacity="1" y="25.375" transform="rotate(0)"><tspan id="SvgjsTspan1036" dy="16" x="80"><tspan id="SvgjsTspan1037" style="text-decoration:;">RlListPipePlaceholder</tspan></tspan></text></g></g><g id="SvgjsG1038"><path id="SvgjsPath1039" d="M92 340L92 145.5L520 145.5L520 95" stroke="#323232" stroke-width="2" fill="none" marker-end="url(#SvgjsMarker1040)"></path><rect id="SvgjsRect1042" width="116" height="16" x="248" y="137.5" fill="#ffffff"></rect><text id="SvgjsText1043" font-family="微软雅黑" text-anchor="middle" font-size="13px" width="116px" fill="#323232" font-weight="400" align="top" lineHeight="16px" anchor="middle" family="微软雅黑" size="13px" weight="400" font-style="" opacity="1" y="135.875" transform="rotate(0)"><tspan id="SvgjsTspan1044" dy="16" x="306"><tspan id="SvgjsTspan1045" style="text-decoration:;">enablePipeFormat</tspan></tspan></text></g><g id="SvgjsG1046"><path id="SvgjsPath1047" d="M891 340L891 217.5L520 217.5L520 95" stroke="#323232" stroke-width="2" fill="none" marker-end="url(#SvgjsMarker1048)"></path><rect id="SvgjsRect1050" width="102" height="16" x="654.5" y="209.5" fill="#ffffff"></rect><text id="SvgjsText1051" font-family="微软雅黑" text-anchor="middle" font-size="13px" width="102px" fill="#323232" font-weight="400" align="top" lineHeight="16px" anchor="middle" family="微软雅黑" size="13px" weight="400" font-style="" opacity="1" y="207.875" transform="rotate(0)"><tspan id="SvgjsTspan1052" dy="16" x="705.5"><tspan id="SvgjsTspan1053" style="text-decoration:;">enablePipeFilter</tspan></tspan></text></g><g id="SvgjsG1054"><path id="SvgjsPath1055" d="M691 340L691 267.5L520 267.5L520 95" stroke="#323232" stroke-width="2" fill="none" marker-end="url(#SvgjsMarker1056)"></path><rect id="SvgjsRect1058" width="145" height="16" x="533" y="259.5" fill="#ffffff"></rect><text id="SvgjsText1059" font-family="微软雅黑" text-anchor="middle" font-size="13px" width="145px" fill="#323232" font-weight="400" align="top" lineHeight="16px" anchor="middle" family="微软雅黑" size="13px" weight="400" font-style="" opacity="1" y="257.875" transform="rotate(0)"><tspan id="SvgjsTspan1060" dy="16" x="605.5"><tspan id="SvgjsTspan1061" style="text-decoration:;">enablePipePlaceholder</tspan></tspan></text></g><g id="SvgjsG1062"><path id="SvgjsPath1063" d="M353.5 340L353.5 184.5L520 184.5L520 95" stroke="#323232" stroke-width="2" fill="none" marker-end="url(#SvgjsMarker1064)"></path><rect id="SvgjsRect1066" width="137" height="16" x="368.25" y="176.5" fill="#ffffff"></rect><text id="SvgjsText1067" font-family="微软雅黑" text-anchor="middle" font-size="13px" width="137px" fill="#323232" font-weight="400" align="top" lineHeight="16px" anchor="middle" family="微软雅黑" size="13px" weight="400" font-style="" opacity="1" y="174.875" transform="rotate(0)"><tspan id="SvgjsTspan1068" dy="16" x="436.75"><tspan id="SvgjsTspan1069" style="text-decoration:;">enablePipePagination</tspan></tspan></text></g><g id="SvgjsG1070" transform="translate(832.5,415)"><path id="SvgjsPath1071" d="M 0 0L 200 0L 200 52L 0 52Z" stroke="none" fill="none"></path><g id="SvgjsG1072"><text id="SvgjsText1073" font-family="微软雅黑" text-anchor="start" font-size="13px" width="200px" fill="#323232" font-weight="400" align="middle" lineHeight="125%" anchor="start" family="微软雅黑" size="13px" weight="400" font-style="" opacity="1" y="0.375" transform="rotate(0)"><tspan id="SvgjsTspan1074" dy="16" x="0"><tspan id="SvgjsTspan1075" style="text-decoration:;">this.$scopedSlots.default({</tspan></tspan><tspan id="SvgjsTspan1076" dy="16" x="0"><tspan id="SvgjsTspan1077" style="text-decoration:;">     filteredList: this.filteredList</tspan></tspan><tspan id="SvgjsTspan1078" dy="16" x="0"><tspan id="SvgjsTspan1079" style="text-decoration:;">})</tspan></tspan></text></g></g><g id="SvgjsG1080" transform="translate(277,415)"><path id="SvgjsPath1081" d="M 0 0L 238 0L 238 96L 0 96Z" stroke="none" fill="none"></path><g id="SvgjsG1082"><text id="SvgjsText1083" font-family="微软雅黑" text-anchor="start" font-size="13px" width="238px" fill="#323232" font-weight="400" align="middle" lineHeight="125%" anchor="start" family="微软雅黑" size="13px" weight="400" font-style="" opacity="1" y="-1.625" transform="rotate(0)"><tspan id="SvgjsTspan1084" dy="16" x="0"><tspan id="SvgjsTspan1085" style="text-decoration:;">this.$scopedSlots.default({</tspan></tspan><tspan id="SvgjsTspan1086" dy="16" x="0"><tspan id="SvgjsTspan1087" style="text-decoration:;">     total: this.total,</tspan></tspan><tspan id="SvgjsTspan1088" dy="16" x="0"><tspan id="SvgjsTspan1089" style="text-decoration:;">     page: this.page,</tspan></tspan><tspan id="SvgjsTspan1090" dy="16" x="0"><tspan id="SvgjsTspan1091" style="text-decoration:;">     pageSize: this.pageSize,</tspan></tspan><tspan id="SvgjsTspan1092" dy="16" x="0"><tspan id="SvgjsTspan1093" style="text-decoration:;">     paginatedList: this.paginatedList</tspan></tspan><tspan id="SvgjsTspan1094" dy="16" x="0"><tspan id="SvgjsTspan1095" style="text-decoration:;">})</tspan></tspan></text></g></g><g id="SvgjsG1096" transform="translate(25,415)"><path id="SvgjsPath1097" d="M 0 0L 240 0L 240 68L 0 68Z" stroke="none" fill="none"></path><g id="SvgjsG1098"><text id="SvgjsText1099" font-family="微软雅黑" text-anchor="start" font-size="13px" width="240px" fill="#323232" font-weight="400" align="middle" lineHeight="125%" anchor="start" family="微软雅黑" size="13px" weight="400" font-style="" opacity="1" y="0.375" transform="rotate(0)"><tspan id="SvgjsTspan1100" dy="16" x="0"><tspan id="SvgjsTspan1101" style="text-decoration:;">this.$scopedSlots.default({</tspan></tspan><tspan id="SvgjsTspan1102" dy="16" x="0"><tspan id="SvgjsTspan1103" style="text-decoration:;">     formattedList: this.formattedList,</tspan></tspan><tspan id="SvgjsTspan1104" dy="16" x="0"><tspan id="SvgjsTspan1105" style="text-decoration:;">     formatApi: this.formatApi</tspan></tspan><tspan id="SvgjsTspan1106" dy="16" x="0"><tspan id="SvgjsTspan1107" style="text-decoration:;">})</tspan></tspan></text></g></g><g id="SvgjsG1108" transform="translate(611.5,415)"><path id="SvgjsPath1109" d="M 0 0L 191 0L 191 55L 0 55Z" stroke="none" fill="none"></path><g id="SvgjsG1110"><text id="SvgjsText1111" font-family="微软雅黑" text-anchor="start" font-size="13px" width="191px" fill="#323232" font-weight="400" align="middle" lineHeight="125%" anchor="start" family="微软雅黑" size="13px" weight="400" font-style="" opacity="1" y="1.875" transform="rotate(0)"><tspan id="SvgjsTspan1112" dy="16" x="0"><tspan id="SvgjsTspan1113" style="text-decoration:;">this.$scopedSlots.default({</tspan></tspan><tspan id="SvgjsTspan1114" dy="16" x="0"><tspan id="SvgjsTspan1115" style="text-decoration:;">     placedList: this.placedList</tspan></tspan><tspan id="SvgjsTspan1116" dy="16" x="0"><tspan id="SvgjsTspan1117" style="text-decoration:;">})</tspan></tspan></text></g></g><g id="SvgjsG1118" transform="translate(460,355)"><path id="SvgjsPath1119" d="M 0 0L 120 0L 120 40L 0 40Z" stroke="none" fill="none"></path><g id="SvgjsG1120"><text id="SvgjsText1121" font-family="微软雅黑" text-anchor="middle" font-size="13px" width="120px" fill="#323232" font-weight="400" align="middle" lineHeight="125%" anchor="middle" family="微软雅黑" size="13px" weight="400" font-style="" opacity="1" y="10.375" transform="rotate(0)"><tspan id="SvgjsTspan1122" dy="16" x="60"><tspan id="SvgjsTspan1123" style="text-decoration:;">••••••</tspan></tspan></text></g></g><g id="SvgjsG1124"><path id="SvgjsPath1125" d="M520 355L520 225L520 225L520 95" stroke="#323232" stroke-width="2" fill="none" marker-end="url(#SvgjsMarker1126)"></path></g></svg>