<svg id="SvgjsSvg1231" width="1754.656" height="675.938" xmlns="http://www.w3.org/2000/svg" version="1.1" xmlns:xlink="http://www.w3.org/1999/xlink" xmlns:svgjs="http://svgjs.com/svgjs"><defs id="SvgjsDefs1232"><marker id="SvgjsMarker1241" markerWidth="16" markerHeight="12" refX="16" refY="6" viewBox="0 0 16 12" orient="auto" markerUnits="userSpaceOnUse" stroke-dasharray="0,0"><path id="SvgjsPath1242" d="M0,2 L14,6 L0,11 L0,2" fill="#323232" stroke="#323232" stroke-width="2"/></marker><marker id="SvgjsMarker1249" markerWidth="16" markerHeight="12" refX="16" refY="6" viewBox="0 0 16 12" orient="auto" markerUnits="userSpaceOnUse" stroke-dasharray="0,0"><path id="SvgjsPath1250" d="M0,2 L14,6 L0,11 L0,2" fill="#323232" stroke="#323232" stroke-width="2"/></marker><marker id="SvgjsMarker1257" markerWidth="16" markerHeight="12" refX="16" refY="6" viewBox="0 0 16 12" orient="auto" markerUnits="userSpaceOnUse" stroke-dasharray="0,0"><path id="SvgjsPath1258" d="M0,2 L14,6 L0,11 L0,2" fill="#323232" stroke="#323232" stroke-width="2"/></marker><marker id="SvgjsMarker1283" markerWidth="16" markerHeight="12" refX="16" refY="6" viewBox="0 0 16 12" orient="auto" markerUnits="userSpaceOnUse" stroke-dasharray="0,0"><path id="SvgjsPath1284" d="M0,2 L14,6 L0,11 L0,2" fill="#323232" stroke="#323232" stroke-width="2"/></marker><marker id="SvgjsMarker1291" markerWidth="16" markerHeight="12" refX="16" refY="6" viewBox="0 0 16 12" orient="auto" markerUnits="userSpaceOnUse" stroke-dasharray="0,0"><path id="SvgjsPath1292" d="M0,2 L14,6 L0,11 L0,2" fill="#323232" stroke="#323232" stroke-width="2"/></marker><marker id="SvgjsMarker1299" markerWidth="16" markerHeight="12" refX="16" refY="6" viewBox="0 0 16 12" orient="auto" markerUnits="userSpaceOnUse" stroke-dasharray="0,0"><path id="SvgjsPath1300" d="M0,2 L14,6 L0,11 L0,2" fill="#323232" stroke="#323232" stroke-width="2"/></marker><marker id="SvgjsMarker1333" markerWidth="16" markerHeight="12" refX="16" refY="6" viewBox="0 0 16 12" orient="auto" markerUnits="userSpaceOnUse" stroke-dasharray="0,0"><path id="SvgjsPath1334" d="M0,2 L14,6 L0,11 L0,2" fill="#323232" stroke="#323232" stroke-width="2"/></marker><marker id="SvgjsMarker1347" markerWidth="16" markerHeight="12" refX="16" refY="6" viewBox="0 0 16 12" orient="auto" markerUnits="userSpaceOnUse" stroke-dasharray="0,0"><path id="SvgjsPath1348" d="M0,2 L14,6 L0,11 L0,2" fill="#323232" stroke="#323232" stroke-width="2"/></marker></defs><g id="SvgjsG1233" transform="translate(684.1097989064165,201.71527777777783)"><path id="SvgjsPath1234" d="M 0 4Q 0 0 4 0L 135.99999999999932 0Q 139.99999999999932 0 139.99999999999932 4L 139.99999999999932 63.55555555555553Q 139.99999999999932 67.55555555555553 135.99999999999932 67.55555555555553L 4 67.55555555555553Q 0 67.55555555555553 0 63.55555555555553Z" stroke="rgba(50,50,50,1)" stroke-width="2" fill-opacity="1" fill="#fff"/><g id="SvgjsG1235"><text id="SvgjsText1236" font-family="微软雅黑" text-anchor="middle" font-size="13" width="120" fill="#323232" font-weight="400" align="middle" lineHeight="125%" anchor="middle" family="微软雅黑" size="13" weight="400" opacity="1" y="24.153" transform="rotate(0)"><tspan id="SvgjsTspan1237" dy="16" x="70"><tspan id="SvgjsTspan1238">RlApiRequest</tspan></tspan></text></g></g><g id="SvgjsG1239"><path id="SvgjsPath1240" d="M754.109798906416 269.2708333333333L754.109798906416 297.3263888888887L754.109798906416 297.3263888888887L754.109798906416 325.3819444444441" stroke="#323232" stroke-width="2" fill="none" marker-end="url(#SvgjsMarker1241)"/><rect id="SvgjsRect1243" width="51" height="16" x="728.61" y="289.326" fill="#fff"/><text id="SvgjsText1244" font-family="微软雅黑" text-anchor="middle" font-size="13" width="51" fill="#323232" font-weight="400" align="top" lineHeight="16" anchor="middle" family="微软雅黑" size="13" weight="400" opacity="1" y="287.701" transform="rotate(0)"><tspan id="SvgjsTspan1245" dy="16" x="754.11"><tspan id="SvgjsTspan1246">extends</tspan></tspan></text></g><g id="SvgjsG1247"><path id="SvgjsPath1248" d="M684.1097989064165 235.49305555555557L163.89062499999932 235.49305555555557L163.89062499999932 316.4940716608239" stroke="#323232" stroke-width="2" fill="none" marker-end="url(#SvgjsMarker1249)"/><rect id="SvgjsRect1251" width="51" height="16" x="358" y="227.493" fill="#fff"/><text id="SvgjsText1252" font-family="微软雅黑" text-anchor="middle" font-size="13" width="51" fill="#323232" font-weight="400" align="top" lineHeight="16" anchor="middle" family="微软雅黑" size="13" weight="400" opacity="1" y="225.868" transform="rotate(0)"><tspan id="SvgjsTspan1253" dy="16" x="383.5"><tspan id="SvgjsTspan1254">extends</tspan></tspan></text></g><g id="SvgjsG1255"><path id="SvgjsPath1256" d="M824.1097989064158 235.49305555555557L1391.668402777774 235.49305555555557L1391.668402777774 316.5364658306377" stroke="#323232" stroke-width="2" fill="none" marker-end="url(#SvgjsMarker1257)"/><rect id="SvgjsRect1259" width="51" height="16" x="1122.911" y="227.493" fill="#fff"/><text id="SvgjsText1260" font-family="微软雅黑" text-anchor="middle" font-size="13" width="51" fill="#323232" font-weight="400" align="top" lineHeight="16" anchor="middle" family="微软雅黑" size="13" weight="400" opacity="1" y="225.868" transform="rotate(0)"><tspan id="SvgjsTspan1261" dy="16" x="1148.411"><tspan id="SvgjsTspan1262">extends</tspan></tspan></text></g><g id="SvgjsG1263" transform="translate(704.109798906416,325.3819444444441)"><path id="SvgjsPath1264" d="M 0 4Q 0 0 4 0L 96 0Q 100 0 100 4L 100 66Q 100 70 96 70L 4 70Q 0 70 0 66Z" stroke="rgba(50,50,50,1)" stroke-width="2" fill-opacity="1" fill="#fff"/><g id="SvgjsG1265"><text id="SvgjsText1266" font-family="微软雅黑" text-anchor="middle" font-size="13" width="80" fill="#323232" font-weight="400" align="middle" lineHeight="125%" anchor="middle" family="微软雅黑" size="13" weight="400" opacity="1" y="25.375" transform="rotate(0)"><tspan id="SvgjsTspan1267" dy="16" x="50"><tspan id="SvgjsTspan1268">RlApiGet</tspan></tspan></text></g></g><g id="SvgjsG1269" transform="translate(113.89062499999932,316.4940716608239)"><path id="SvgjsPath1270" d="M 0 4Q 0 0 4 0L 96 0Q 100 0 100 4L 100 66Q 100 70 96 70L 4 70Q 0 70 0 66Z" stroke="rgba(50,50,50,1)" stroke-width="2" fill-opacity="1" fill="#fff"/><g id="SvgjsG1271"><text id="SvgjsText1272" font-family="微软雅黑" text-anchor="middle" font-size="13" width="80" fill="#323232" font-weight="400" align="middle" lineHeight="125%" anchor="middle" family="微软雅黑" size="13" weight="400" opacity="1" y="25.375" transform="rotate(0)"><tspan id="SvgjsTspan1273" dy="16" x="50"><tspan id="SvgjsTspan1274">RlApiPost</tspan></tspan></text></g></g><g id="SvgjsG1275" transform="translate(1341.6684027777737,316.5364658306377)"><path id="SvgjsPath1276" d="M 0 4Q 0 0 4 0L 96 0Q 100 0 100 4L 100 66Q 100 70 96 70L 4 70Q 0 70 0 66Z" stroke="rgba(50,50,50,1)" stroke-width="2" fill-opacity="1" fill="#fff"/><g id="SvgjsG1277"><text id="SvgjsText1278" font-family="微软雅黑" text-anchor="middle" font-size="13" width="80" fill="#323232" font-weight="400" align="middle" lineHeight="125%" anchor="middle" family="微软雅黑" size="13" weight="400" opacity="1" y="25.375" transform="rotate(0)"><tspan id="SvgjsTspan1279" dy="16" x="50"><tspan id="SvgjsTspan1280">RlApiDelete</tspan></tspan></text></g></g><g id="SvgjsG1281"><path id="SvgjsPath1282" d="M754.109798906416 395.38194444444395L754.109798906416 425.4932079713453L754.1101037379965 425.4932079713453L754.1101037379965 455.6044714982467" stroke="#323232" stroke-width="2" fill="none" marker-end="url(#SvgjsMarker1283)"/><rect id="SvgjsRect1285" width="51" height="16" x="728.61" y="417.493" fill="#fff"/><text id="SvgjsText1286" font-family="微软雅黑" text-anchor="middle" font-size="13" width="51" fill="#323232" font-weight="400" align="top" lineHeight="16" anchor="middle" family="微软雅黑" size="13" weight="400" opacity="1" y="415.868" transform="rotate(0)"><tspan id="SvgjsTspan1287" dy="16" x="754.11"><tspan id="SvgjsTspan1288">extends</tspan></tspan></text></g><g id="SvgjsG1289"><path id="SvgjsPath1290" d="M804.109798906416 360.38194444444406L1132.7795138888862 360.38194444444406L1132.7795138888862 455.70095341146833" stroke="#323232" stroke-width="2" fill="none" marker-end="url(#SvgjsMarker1291)"/><rect id="SvgjsRect1293" width="51" height="16" x="990.604" y="352.382" fill="#fff"/><text id="SvgjsText1294" font-family="微软雅黑" text-anchor="middle" font-size="13" width="51" fill="#323232" font-weight="400" align="top" lineHeight="16" anchor="middle" family="微软雅黑" size="13" weight="400" opacity="1" y="350.757" transform="rotate(0)"><tspan id="SvgjsTspan1295" dy="16" x="1016.104"><tspan id="SvgjsTspan1296">extends</tspan></tspan></text></g><g id="SvgjsG1297"><path id="SvgjsPath1298" d="M704.109798906416 360.38194444444406L412.7795138888878 360.38194444444406L412.7795138888878 455.6903700269639" stroke="#323232" stroke-width="2" fill="none" marker-end="url(#SvgjsMarker1299)"/><rect id="SvgjsRect1301" width="51" height="16" x="485.29" y="352.382" fill="#fff"/><text id="SvgjsText1302" font-family="微软雅黑" text-anchor="middle" font-size="13" width="51" fill="#323232" font-weight="400" align="top" lineHeight="16" anchor="middle" family="微软雅黑" size="13" weight="400" opacity="1" y="350.757" transform="rotate(0)"><tspan id="SvgjsTspan1303" dy="16" x="510.79"><tspan id="SvgjsTspan1304">extends</tspan></tspan></text></g><g id="SvgjsG1305" transform="translate(704.1101037379965,455.6044714982467)"><path id="SvgjsPath1306" d="M 0 4Q 0 0 4 0L 96 0Q 100 0 100 4L 100 66Q 100 70 96 70L 4 70Q 0 70 0 66Z" stroke="rgba(50,50,50,1)" stroke-width="2" fill-opacity="1" fill="#fff"/><g id="SvgjsG1307"><text id="SvgjsText1308" font-family="微软雅黑" text-anchor="middle" font-size="13" width="80" fill="#323232" font-weight="400" align="middle" lineHeight="125%" anchor="middle" family="微软雅黑" size="13" weight="400" opacity="1" y="25.375" transform="rotate(0)"><tspan id="SvgjsTspan1309" dy="16" x="50"><tspan id="SvgjsTspan1310">RlApiInfo</tspan></tspan></text></g></g><g id="SvgjsG1311" transform="translate(362.7795138888878,455.6903700269639)"><path id="SvgjsPath1312" d="M 0 4Q 0 0 4 0L 96 0Q 100 0 100 4L 100 66Q 100 70 96 70L 4 70Q 0 70 0 66Z" stroke="rgba(50,50,50,1)" stroke-width="2" fill-opacity="1" fill="#fff"/><g id="SvgjsG1313"><text id="SvgjsText1314" font-family="微软雅黑" text-anchor="middle" font-size="13" width="80" fill="#323232" font-weight="400" align="middle" lineHeight="125%" anchor="middle" family="微软雅黑" size="13" weight="400" opacity="1" y="25.375" transform="rotate(0)"><tspan id="SvgjsTspan1315" dy="16" x="50"><tspan id="SvgjsTspan1316">RlApiList</tspan></tspan></text></g></g><g id="SvgjsG1317" transform="translate(1082.7795138888864,455.70095341146833)"><path id="SvgjsPath1318" d="M 0 4Q 0 0 4 0L 96 0Q 100 0 100 4L 100 66Q 100 70 96 70L 4 70Q 0 70 0 66Z" stroke="rgba(50,50,50,1)" stroke-width="2" fill-opacity="1" fill="#fff"/><g id="SvgjsG1319"><text id="SvgjsText1320" font-family="微软雅黑" text-anchor="middle" font-size="13" width="80" fill="#323232" font-weight="400" align="middle" lineHeight="125%" anchor="middle" family="微软雅黑" size="13" weight="400" opacity="1" y="25.375" transform="rotate(0)"><tspan id="SvgjsTspan1321" dy="16" x="50"><tspan id="SvgjsTspan1322">RlApiSeries</tspan></tspan></text></g></g><g id="SvgjsG1323" transform="translate(362.7795138888878,580.9375000000001)"><path id="SvgjsPath1324" d="M 0 4Q 0 0 4 0L 96 0Q 100 0 100 4L 100 66Q 100 70 96 70L 4 70Q 0 70 0 66Z" stroke="rgba(50,50,50,1)" stroke-width="2" fill-opacity="1" fill="#fff"/><g id="SvgjsG1325"><text id="SvgjsText1326" font-family="微软雅黑" text-anchor="middle" font-size="13" width="80" fill="#323232" font-weight="400" align="middle" lineHeight="125%" anchor="middle" family="微软雅黑" size="13" weight="400" opacity="1" y="17.375" transform="rotate(0)"><tspan id="SvgjsTspan1327" dy="16" x="50"><tspan id="SvgjsTspan1328">RlApiListSta</tspan></tspan><tspan id="SvgjsTspan1329" dy="16" x="50"><tspan id="SvgjsTspan1330">ndard</tspan></tspan></text></g></g><g id="SvgjsG1331"><path id="SvgjsPath1332" d="M412.7795138888878 525.6903700269638L412.7795138888878 553.313935013482L412.7795138888878 553.313935013482L412.7795138888878 580.9375000000001" stroke="#323232" stroke-width="2" fill="none" marker-end="url(#SvgjsMarker1333)"/><rect id="SvgjsRect1335" width="51" height="16" x="387.28" y="545.314" fill="#fff"/><text id="SvgjsText1336" font-family="微软雅黑" text-anchor="middle" font-size="13" width="51" fill="#323232" font-weight="400" align="top" lineHeight="16" anchor="middle" family="微软雅黑" size="13" weight="400" opacity="1" y="543.689" transform="rotate(0)"><tspan id="SvgjsTspan1337" dy="16" x="412.78"><tspan id="SvgjsTspan1338">extends</tspan></tspan></text></g><g id="SvgjsG1339" transform="translate(704.1101037379965,74.27083333333333)"><path id="SvgjsPath1340" d="M 0 4Q 0 0 4 0L 96 0Q 100 0 100 4L 100 66Q 100 70 96 70L 4 70Q 0 70 0 66Z" stroke="rgba(50,50,50,1)" stroke-width="2" fill-opacity="1" fill="#fff"/><g id="SvgjsG1341"><text id="SvgjsText1342" font-family="微软雅黑" text-anchor="middle" font-size="13" width="80" fill="#323232" font-weight="400" align="middle" lineHeight="125%" anchor="middle" family="微软雅黑" size="13" weight="400" opacity="1" y="25.375" transform="rotate(0)"><tspan id="SvgjsTspan1343" dy="16" x="50"><tspan id="SvgjsTspan1344">axios</tspan></tspan></text></g></g><g id="SvgjsG1345"><path id="SvgjsPath1346" d="M754.1101037379965 144.27083333333331L754.1101037379965 172.99305555555557L754.1097989064162 172.99305555555557L754.1097989064162 201.71527777777783" stroke="#323232" stroke-width="2" fill="none" marker-end="url(#SvgjsMarker1347)"/><rect id="SvgjsRect1349" width="74" height="16" x="717.11" y="164.993" fill="#fff"/><text id="SvgjsText1350" font-family="微软雅黑" text-anchor="middle" font-size="13" width="74" fill="#323232" font-weight="400" align="top" lineHeight="16" anchor="middle" family="微软雅黑" size="13" weight="400" opacity="1" y="163.368" transform="rotate(0)"><tspan id="SvgjsTspan1351" dy="16" x="754.11"><tspan id="SvgjsTspan1352">:requestApi</tspan></tspan></text></g><g id="SvgjsG1353" transform="translate(831.9702989431098,25.004715363511593)"><path id="SvgjsPath1354" d="M 0 0L 651.1111111111111 0L 651.1111111111111 160.9876543209877L 0 160.9876543209877Z" stroke="none" fill="none"/><g id="SvgjsG1355"><text id="SvgjsText1356" font-family="微软雅黑" text-anchor="start" font-size="13" width="652" fill="#323232" font-weight="400" align="middle" lineHeight="125%" anchor="start" family="微软雅黑" size="13" weight="400" opacity="1" y="6.869" transform="rotate(0)"><tspan id="SvgjsTspan1357" dy="16" x="0"><tspan id="SvgjsTspan1358">ajax = axios.create(defaultConfig)</tspan></tspan><tspan id="SvgjsTspan1359" dy="16" x="0"><tspan id="SvgjsTspan1360">ajax.interceptors.request.use(onFulfilled, onRejected)</tspan></tspan><tspan id="SvgjsTspan1361" dy="16" x="0"><tspan id="SvgjsTspan1362">ajax.instance.interceptors.response.use(onFulfilled, onRejected)</tspan></tspan><tspan id="SvgjsTspan1363" dy="16" x="0"><tspan id="SvgjsTspan1364">这里会对返回的数据和错误码做统一处理，通过 lodash.cloneDeepWith 将数据中的 null 替换为 undefined</tspan></tspan><tspan id="SvgjsTspan1365" dy="16" x="0"><tspan id="SvgjsTspan1366">cloneDeepWith(resData, (value, key, object) =&gt; {</tspan></tspan><tspan id="SvgjsTspan1367" dy="16" x="0"><tspan id="SvgjsTspan1368"> if (value === null) {</tspan></tspan><tspan id="SvgjsTspan1369" dy="16" x="0"><tspan id="SvgjsTspan1370"> object[key] = undefined</tspan></tspan><tspan id="SvgjsTspan1371" dy="16" x="0"><tspan id="SvgjsTspan1372"> }</tspan></tspan><tspan id="SvgjsTspan1373" dy="16" x="0"><tspan id="SvgjsTspan1374">})</tspan></tspan></text></g></g><g id="SvgjsG1375" transform="translate(831.7507073045272,194.93545085437518)"><path id="SvgjsPath1376" d="M 0 0L 678.8888888888898 0L 678.8888888888898 34.87730528882793L 0 34.87730528882793Z" stroke="none" fill="none"/><g id="SvgjsG1377"><text id="SvgjsText1378" font-family="微软雅黑" text-anchor="start" font-size="13" width="679" fill="#323232" font-weight="400" align="middle" lineHeight="125%" anchor="start" family="微软雅黑" size="13" weight="400" opacity="1" y="7.814" transform="rotate(0)"><tspan id="SvgjsTspan1379" dy="16" x="0"><tspan id="SvgjsTspan1380">通过 props 接受请求方法、请求体、查询参数、路径参数等，发起请求前会进行参数校验、在 unmont 时取消请求</tspan></tspan></text></g></g><g id="SvgjsG1381" transform="translate(173.89062500000125,254.55204046639255)"><path id="SvgjsPath1382" d="M 0 0L 322.2222222222214 0L 322.2222222222214 52.22222222222203L 0 52.22222222222203Z" stroke="none" fill="none"/><g id="SvgjsG1383"><text id="SvgjsText1384" font-family="微软雅黑" text-anchor="start" font-size="13" width="323" fill="#323232" font-weight="400" align="middle" lineHeight="125%" anchor="start" family="微软雅黑" size="13" weight="400" opacity="1" y="8.486" transform="rotate(0)"><tspan id="SvgjsTspan1385" dy="16" x="0"><tspan id="SvgjsTspan1386">通过 $scopedSlots.default 暴露一个对象，包括：</tspan></tspan><tspan id="SvgjsTspan1387" dy="16" x="0"><tspan id="SvgjsTspan1388" font-size="inherit">post 方法、loading，用于表单提交</tspan></tspan></text></g></g><g id="SvgjsG1389" transform="translate(1401.66840277778,254.42553536046358)"><path id="SvgjsPath1390" d="M 0 0L 327.7777777777751 0L 327.7777777777751 52.47523243408L 0 52.47523243408Z" stroke="none" fill="none"/><g id="SvgjsG1391"><text id="SvgjsText1392" font-family="微软雅黑" text-anchor="start" font-size="13" width="328" fill="#323232" font-weight="400" align="middle" lineHeight="125%" anchor="start" family="微软雅黑" size="13" weight="400" opacity="1" y=".613" transform="rotate(0)"><tspan id="SvgjsTspan1393" dy="16" x="0"><tspan id="SvgjsTspan1394">通过 $scopedSlots.default 暴露一个对象，包括：</tspan></tspan><tspan id="SvgjsTspan1395" dy="16" x="0"><tspan id="SvgjsTspan1396" font-size="inherit">delete 方法、loading</tspan></tspan><tspan id="SvgjsTspan1397" dy="16" x="0"><tspan id="SvgjsTspan1398" font-size="inherit">用于删除操作</tspan></tspan></text></g></g><g id="SvgjsG1399" transform="translate(811.6653544619708,312.43989631492474)"><path id="SvgjsPath1400" d="M 0 0L 487.78082609358466 0L 487.78082609358466 38.8888888888888L 0 38.8888888888888Z" stroke="none" fill="none"/><g id="SvgjsG1401"><text id="SvgjsText1402" font-family="微软雅黑" text-anchor="start" font-size="13" width="488" fill="#323232" font-weight="400" align="middle" lineHeight="125%" anchor="start" family="微软雅黑" size="13" weight="400" opacity="1" y="1.819" transform="rotate(0)"><tspan id="SvgjsTspan1403" dy="16" x="0"><tspan id="SvgjsTspan1404">通过 $scopedSlots.default 暴露一个对象，包括：</tspan><tspan id="SvgjsTspan1405" font-size="inherit">原始数据、错误码、状态码</tspan></tspan><tspan id="SvgjsTspan1406" dy="16" x="0"><tspan id="SvgjsTspan1407">通过重载 iFormatApi 方法可以实现对返回数据的格式化</tspan></tspan></text></g></g><g id="SvgjsG1408" transform="translate(1143.8906250000007,389.14737654320965)"><path id="SvgjsPath1409" d="M 0 0L 319.99999999999955 0L 319.99999999999955 57.9012345679015L 0 57.9012345679015Z" stroke="none" fill="none"/><g id="SvgjsG1410"><text id="SvgjsText1411" font-family="微软雅黑" text-anchor="start" font-size="13" width="320" fill="#323232" font-weight="400" align="middle" lineHeight="125%" anchor="start" family="微软雅黑" size="13" weight="400" opacity="1" y="3.326" transform="rotate(0)"><tspan id="SvgjsTspan1412" dy="16" x="0"><tspan id="SvgjsTspan1413">通过 $scopedSlots.default 暴露一个对象，包括：</tspan></tspan><tspan id="SvgjsTspan1414" dy="16" x="0"><tspan id="SvgjsTspan1415" font-size="inherit">series 数据、refresh 方法、loading</tspan></tspan><tspan id="SvgjsTspan1416" dy="16" x="0"><tspan id="SvgjsTspan1417" font-size="inherit">用于请求图表数据</tspan></tspan></text></g></g><g id="SvgjsG1418" transform="translate(704.0996228003196,538.1597222222222)"><path id="SvgjsPath1419" d="M 0 0L 322.1399176954733 0L 322.1399176954733 53.33333333333326L 0 53.33333333333326Z" stroke="none" fill="none"/><g id="SvgjsG1420"><text id="SvgjsText1421" font-family="微软雅黑" text-anchor="start" font-size="13" width="323" fill="#323232" font-weight="400" align="middle" lineHeight="125%" anchor="start" family="微软雅黑" size="13" weight="400" opacity="1" y="1.042" transform="rotate(0)"><tspan id="SvgjsTspan1422" dy="16" x="0"><tspan id="SvgjsTspan1423">通过 $scopedSlots.default 暴露一个对象，包括：</tspan></tspan><tspan id="SvgjsTspan1424" dy="16" x="0"><tspan id="SvgjsTspan1425" font-size="inherit">info 数据、refresh 方法、loading</tspan></tspan><tspan id="SvgjsTspan1426" dy="16" x="0"><tspan id="SvgjsTspan1427" font-size="inherit">用于请求详情数据</tspan></tspan></text></g></g><g id="SvgjsG1428" transform="translate(42.779513888889824,459.029961155346)"><path id="SvgjsPath1429" d="M 0 0L 341.1111111111112 0L 341.1111111111112 63.333333333333314L 0 63.333333333333314Z" stroke="none" fill="none"/><g id="SvgjsG1430"><text id="SvgjsText1431" font-family="微软雅黑" text-anchor="start" font-size="13" width="342" fill="#323232" font-weight="400" align="middle" lineHeight="125%" anchor="start" family="微软雅黑" size="13" weight="400" opacity="1" y="6.042" transform="rotate(0)"><tspan id="SvgjsTspan1432" dy="16" x="0"><tspan id="SvgjsTspan1433">通过 $scopedSlots.default 暴露一个对象，包括：</tspan></tspan><tspan id="SvgjsTspan1434" dy="16" x="0"><tspan id="SvgjsTspan1435" font-size="inherit">list 数据、refresh 方法、page、pageSize、loading</tspan></tspan><tspan id="SvgjsTspan1436" dy="16" x="0"><tspan id="SvgjsTspan1437" font-size="inherit">用于请求列表数据（支持接口分页）</tspan></tspan></text></g></g><g id="SvgjsG1438" transform="translate(468.5957004458186,596.925154320988)"><path id="SvgjsPath1439" d="M 0 0L 397.53086419752753 0L 397.53086419752753 37.77777777777749L 0 37.77777777777749Z" stroke="none" fill="none"/><g id="SvgjsG1440"><text id="SvgjsText1441" font-family="微软雅黑" text-anchor="middle" font-size="13" width="398" fill="#323232" font-weight="400" align="middle" lineHeight="125%" anchor="middle" family="微软雅黑" size="13" weight="400" opacity="1" y="9.264" transform="rotate(0)"><tspan id="SvgjsTspan1442" dy="16" x="199"><tspan id="SvgjsTspan1443">通过 props 传入 apiSearchKey、apiSearchValue 支持模糊搜索</tspan></tspan></text></g></g><g id="SvgjsG1444" transform="translate(25.001736111111086,25.004715363511593)"><path id="SvgjsPath1445" d="M 0 0L 642.2222222222222 0L 642.2222222222222 217.5994513031551L 0 217.5994513031551Z" stroke="none" fill="none"/><g id="SvgjsG1446"><text id="SvgjsText1447" font-family="微软雅黑" text-anchor="start" font-size="18" width="643" fill="#e57373" font-weight="700" align="middle" lineHeight="125%" anchor="start" family="微软雅黑" size="18" weight="700" opacity="1" y="62.55" transform="rotate(0)"><tspan id="SvgjsTspan1448" dy="22" x="0"><tspan id="SvgjsTspan1449">用于数据请求的 renderless 组件，都将 computed、methods 属性拆分成</tspan></tspan><tspan id="SvgjsTspan1450" dy="22" x="0"><tspan id="SvgjsTspan1451">了 axxx（抽象层，一般放置了默认值）、ixxx（业务层，根据具体业务进行重</tspan></tspan><tspan id="SvgjsTspan1452" dy="22" x="0"><tspan id="SvgjsTspan1453">载），两者共同组成 cxxx （根据具体的逻辑进行合并或覆盖）进行使用。</tspan></tspan><tspan id="SvgjsTspan1454" dy="22" x="0"><tspan id="SvgjsTspan1455"></tspan></tspan></text></g></g></svg>