<svg id="SvgjsSvg1001" width="774" height="420" xmlns="http://www.w3.org/2000/svg" version="1.1" xmlns:xlink="http://www.w3.org/1999/xlink" xmlns:svgjs="http://svgjs.com/svgjs"><defs id="SvgjsDefs1002"><marker id="SvgjsMarker1016" markerWidth="14" markerHeight="10" refX="10" refY="5" viewBox="0 0 14 10" orient="auto" markerUnits="userSpaceOnUse" stroke-dasharray="0,0"><path id="SvgjsPath1017" d="M0,0 L14,5 L0,10 L0,0" fill="#323232" stroke="#323232" stroke-width="1"></path></marker><marker id="SvgjsMarker1020" markerWidth="14" markerHeight="10" refX="10" refY="5" viewBox="0 0 14 10" orient="auto" markerUnits="userSpaceOnUse" stroke-dasharray="0,0"><path id="SvgjsPath1021" d="M0,0 L14,5 L0,10 L0,0" fill="#323232" stroke="#323232" stroke-width="1"></path></marker><marker id="SvgjsMarker1024" markerWidth="14" markerHeight="10" refX="10" refY="5" viewBox="0 0 14 10" orient="auto" markerUnits="userSpaceOnUse" stroke-dasharray="0,0"><path id="SvgjsPath1025" d="M0,0 L14,5 L0,10 L0,0" fill="#323232" stroke="#323232" stroke-width="1"></path></marker><marker id="SvgjsMarker1028" markerWidth="14" markerHeight="10" refX="10" refY="5" viewBox="0 0 14 10" orient="auto" markerUnits="userSpaceOnUse" stroke-dasharray="0,0"><path id="SvgjsPath1029" d="M0,0 L14,5 L0,10 L0,0" fill="#323232" stroke="#323232" stroke-width="1"></path></marker><marker id="SvgjsMarker1070" markerWidth="14" markerHeight="10" refX="10" refY="5" viewBox="0 0 14 10" orient="auto" markerUnits="userSpaceOnUse" stroke-dasharray="0,0"><path id="SvgjsPath1071" d="M0,0 L14,5 L0,10 L0,0" fill="#323232" stroke="#323232" stroke-width="1"></path></marker><marker id="SvgjsMarker1080" markerWidth="14" markerHeight="10" refX="10" refY="5" viewBox="0 0 14 10" orient="auto" markerUnits="userSpaceOnUse" stroke-dasharray="0,0"><path id="SvgjsPath1081" d="M0,0 L14,5 L0,10 L0,0" fill="#323232" stroke="#323232" stroke-width="1"></path></marker></defs><g id="SvgjsG1008" transform="translate(29,232.5)"><path id="SvgjsPath1009" d="M 0 0L 720 0L 720 40L 0 40Z" stroke="none" fill="none"></path><g id="SvgjsG1010"><text id="SvgjsText1011" font-family="微软雅黑" text-anchor="middle" font-size="20px" width="720px" fill="#323232" font-weight="400" align="middle" lineHeight="125%" anchor="middle" family="微软雅黑" size="20px" weight="400" font-style="" opacity="1" y="2" transform="rotate(0)"><tspan id="SvgjsTspan1012" dy="25" x="360"><tspan id="SvgjsTspan1013" style="text-decoration:;">*carousel="let item from images autoplay 'on' withDelay 2000"</tspan></tspan></text></g></g><g id="SvgjsG1014"><path id="SvgjsPath1015" d="M147 335.5L147 304.25L147 304.25L147 275.6" stroke="#323232" stroke-width="2" fill="none" marker-end="url(#SvgjsMarker1016)"></path></g><g id="SvgjsG1018"><path id="SvgjsPath1019" d="M150.25 188L150.25 210L254 210L254 229.39999999999998" stroke="#323232" stroke-width="2" fill="none" marker-end="url(#SvgjsMarker1020)"></path></g><g id="SvgjsG1022"><path id="SvgjsPath1023" d="M398.5 110L398.5 171L365 171L365 229.39999999999998" stroke="#323232" stroke-width="2" fill="none" marker-end="url(#SvgjsMarker1024)"></path></g><g id="SvgjsG1026"><path id="SvgjsPath1027" d="M287.5 334L287.5 303.5L301 303.5L301 275.6" stroke="#323232" stroke-width="2" fill="none" marker-end="url(#SvgjsMarker1028)"></path></g><g id="SvgjsG1030" transform="translate(100,336.5)"><path id="SvgjsPath1031" d="M 0 0L 94 0L 94 57L 0 57Z" stroke="none" fill="none"></path><g id="SvgjsG1032"><text id="SvgjsText1033" font-family="微软雅黑" text-anchor="middle" font-size="13px" width="94px" fill="#323232" font-weight="400" align="middle" lineHeight="125%" anchor="middle" family="微软雅黑" size="13px" weight="400" font-style="" opacity="1" y="17.875" transform="rotate(0)"><tspan id="SvgjsTspan1034" dy="16" x="47"><tspan id="SvgjsTspan1035" style="text-decoration:;">指令名称</tspan></tspan></text></g></g><g id="SvgjsG1036" transform="translate(25,106)"><path id="SvgjsPath1037" d="M 0 0L 250.5 0L 250.5 81L 0 81Z" stroke="none" fill="none"></path><g id="SvgjsG1038"><text id="SvgjsText1039" font-family="微软雅黑" text-anchor="middle" font-size="13px" width="251px" fill="#323232" font-weight="400" align="middle" lineHeight="125%" anchor="middle" family="微软雅黑" size="13px" weight="400" font-style="" opacity="1" y="13.375" transform="rotate(0)"><tspan id="SvgjsTspan1040" dy="16" x="125.5"><tspan id="SvgjsTspan1041" style="text-decoration:;">声明模版变量</tspan></tspan><tspan id="SvgjsTspan1042" dy="16" x="125.5"><tspan id="SvgjsTspan1043" style="text-decoration:;">默认从上下文的 $implicit 属性上取值</tspan></tspan><tspan id="SvgjsTspan1044" dy="16" x="125.5"><tspan id="SvgjsTspan1045" style="text-decoration:;">let item = $implicit</tspan></tspan></text></g></g><g id="SvgjsG1046" transform="translate(222,335)"><path id="SvgjsPath1047" d="M 0 0L 131 0L 131 60L 0 60Z" stroke="none" fill="none"></path><g id="SvgjsG1048"><text id="SvgjsText1049" font-family="微软雅黑" text-anchor="middle" font-size="13px" width="131px" fill="#323232" font-weight="400" align="middle" lineHeight="125%" anchor="middle" family="微软雅黑" size="13px" weight="400" font-style="" opacity="1" y="19.375" transform="rotate(0)"><tspan id="SvgjsTspan1050" dy="16" x="65.5"><tspan id="SvgjsTspan1051" style="text-decoration:;">绑定 key，名称随意</tspan></tspan></text></g></g><g id="SvgjsG1052" transform="translate(198,25)"><path id="SvgjsPath1053" d="M 0 0L 401 0L 401 84L 0 84Z" stroke="none" fill="none"></path><g id="SvgjsG1054"><text id="SvgjsText1055" font-family="微软雅黑" text-anchor="middle" font-size="13px" width="401px" fill="#323232" font-weight="400" align="middle" lineHeight="125%" anchor="middle" family="微软雅黑" size="13px" weight="400" font-style="" opacity="1" y="14.875" transform="rotate(0)"><tspan id="SvgjsTspan1056" dy="16" x="200.5"><tspan id="SvgjsTspan1057" style="text-decoration:;">传入指令的值</tspan></tspan><tspan id="SvgjsTspan1058" dy="16" x="200.5"><tspan id="SvgjsTspan1059" style="text-decoration:;">@Input('carouselFrom') images: string[]</tspan></tspan><tspan id="SvgjsTspan1060" dy="16" x="200.5"><tspan id="SvgjsTspan1061" style="text-decoration:;--darkreader-inline-color:#c8c4bd; fill: rgb(50, 50, 50);">carouselFrom 不是随便起的，它是由“指令名称”和“绑定 key”决定的</tspan></tspan></text></g></g><g id="SvgjsG1062" transform="translate(412.5,337)"><path id="SvgjsPath1063" d="M 0 0L 278 0L 278 58L 0 58Z" stroke="none" fill="none"></path><g id="SvgjsG1064"><text id="SvgjsText1065" font-family="微软雅黑" text-anchor="middle" font-size="13px" width="278px" fill="#323232" font-weight="400" align="middle" lineHeight="125%" anchor="middle" family="微软雅黑" size="13px" weight="400" font-style="" opacity="1" y="18.375" transform="rotate(0)"><tspan id="SvgjsTspan1066" dy="16" x="139"><tspan id="SvgjsTspan1067" style="text-decoration:;">@Input(carouselAutoplay) autoplay: 'on' | 'off'</tspan></tspan></text></g></g><g id="SvgjsG1068"><path id="SvgjsPath1069" d="M551.5 336L551.5 304.5L445 304.5L445 275.6" stroke="#323232" stroke-width="2" fill="none" marker-end="url(#SvgjsMarker1070)"></path></g><g id="SvgjsG1072" transform="translate(473,116.5)"><path id="SvgjsPath1073" d="M 0 0L 265 0L 265 60L 0 60Z" stroke="none" fill="none"></path><g id="SvgjsG1074"><text id="SvgjsText1075" font-family="微软雅黑" text-anchor="middle" font-size="13px" width="265px" fill="#323232" font-weight="400" align="middle" lineHeight="125%" anchor="middle" family="微软雅黑" size="13px" weight="400" font-style="" opacity="1" y="19.375" transform="rotate(0)"><tspan id="SvgjsTspan1076" dy="16" x="132.5"><tspan id="SvgjsTspan1077" style="text-decoration:;">@Input(carouselWithDelay) delay: number</tspan></tspan></text></g></g><g id="SvgjsG1078"><path id="SvgjsPath1079" d="M605.5 177.5L605.5 204.75L569 204.75L569 229.39999999999998" stroke="#323232" stroke-width="2" fill="none" marker-end="url(#SvgjsMarker1080)"></path></g></svg>